<mxfile host="app.diagrams.net" modified="2023-03-15T01:43:34.435Z" agent="5.0 (Macintosh; Intel Mac OS X 10_15_7) AppleWebKit/537.36 (KHTML, like Gecko) Chrome/111.0.0.0 Safari/537.36" version="20.8.5" etag="pf_ajAUYztpJs8X-Q84U" type="github">
  <diagram id="-ohBLE8x-Wnpsi6ogWC7" name="第 1 页">
    <mxGraphModel dx="984" dy="533" grid="1" gridSize="10" guides="1" tooltips="1" connect="1" arrows="1" fold="1" page="1" pageScale="1" pageWidth="827" pageHeight="1169" math="0" shadow="0">
      <root>
        <mxCell id="0" />
        <mxCell id="1" parent="0" />
        <mxCell id="SR0VA5SI1RpmBbKCay9N-19" value="" style="rounded=0;whiteSpace=wrap;html=1;dashed=1;dashPattern=8 8;fillColor=none;" vertex="1" parent="1">
          <mxGeometry x="370" y="50" width="340" height="320" as="geometry" />
        </mxCell>
        <mxCell id="SR0VA5SI1RpmBbKCay9N-4" value="" style="edgeStyle=orthogonalEdgeStyle;rounded=0;orthogonalLoop=1;jettySize=auto;html=1;" edge="1" parent="1" source="SR0VA5SI1RpmBbKCay9N-2" target="SR0VA5SI1RpmBbKCay9N-3">
          <mxGeometry relative="1" as="geometry" />
        </mxCell>
        <mxCell id="SR0VA5SI1RpmBbKCay9N-5" value="访问" style="edgeLabel;html=1;align=center;verticalAlign=middle;resizable=0;points=[];" vertex="1" connectable="0" parent="SR0VA5SI1RpmBbKCay9N-4">
          <mxGeometry x="-0.2286" y="-1" relative="1" as="geometry">
            <mxPoint y="1" as="offset" />
          </mxGeometry>
        </mxCell>
        <mxCell id="SR0VA5SI1RpmBbKCay9N-2" value="用户" style="html=1;verticalLabelPosition=bottom;align=center;labelBackgroundColor=#ffffff;verticalAlign=top;strokeWidth=2;strokeColor=#0080F0;shadow=0;dashed=0;shape=mxgraph.ios7.icons.user;" vertex="1" parent="1">
          <mxGeometry x="30" y="160" width="50" height="50" as="geometry" />
        </mxCell>
        <mxCell id="SR0VA5SI1RpmBbKCay9N-18" value="" style="edgeStyle=none;rounded=0;orthogonalLoop=1;jettySize=auto;html=1;" edge="1" parent="1" source="SR0VA5SI1RpmBbKCay9N-3" target="SR0VA5SI1RpmBbKCay9N-12">
          <mxGeometry relative="1" as="geometry" />
        </mxCell>
        <mxCell id="SR0VA5SI1RpmBbKCay9N-24" value="HTTP" style="edgeLabel;html=1;align=center;verticalAlign=middle;resizable=0;points=[];" vertex="1" connectable="0" parent="SR0VA5SI1RpmBbKCay9N-18">
          <mxGeometry x="-0.0911" y="3" relative="1" as="geometry">
            <mxPoint as="offset" />
          </mxGeometry>
        </mxCell>
        <mxCell id="SR0VA5SI1RpmBbKCay9N-3" value="Web浏览器" style="points=[];aspect=fixed;html=1;align=center;shadow=0;dashed=0;image;image=img/lib/allied_telesis/computer_and_terminals/Personal_Computer.svg;" vertex="1" parent="1">
          <mxGeometry x="150" y="154.1" width="45.6" height="61.800000000000004" as="geometry" />
        </mxCell>
        <mxCell id="SR0VA5SI1RpmBbKCay9N-8" value="MySQL" style="shape=image;verticalLabelPosition=bottom;labelBackgroundColor=default;verticalAlign=top;aspect=fixed;imageAspect=0;image=data:image/png,iVBORw0KGgoAAAANSUhEUgAAADAAAAAwCAYAAABXAvmHAAAACXBIWXMAAAsTAAALEwEAmpwYAAAGOElEQVR4nO2XbWhb1xnHn3vOuZJsWU5LNkq2QdotoZRug9GxNwgMChtsKduXdGG00HY0y1yrluTYsnV179HLfX+Tru04uW1GWcv6IdQb+7BRlq3QUtiHBrqFSXlr1jbJ5jpO3MSJ7TkvO+MoiecXuYR+GAroBw869z5/Hf3/90q65wC0adOmTZs2bdrcRQRBt+gHfxArI2+QSpCBMBThrsL3N4mVwIcgiBJ/tE+sBG8TP3iF+NXdYFkJuBsQK0GBBMF3lk6Mjm4UverTolt9Ezv+Y9DyhKFI3ODXwJgAUs9mGOr9SeO853Vgxx/Htqc1eq0M8So/x7b/vcYBD7G8Z3kD2HAr0NLwq235B9Zr8wDIcHdBK0Mstw9b7qNNm2EoIs3+CxjG/dCyHDyIse68uF4bq+b3cckcg5bFsh5EutOzbp8xARW1d0DXN0IrgjTncaKa3/pEjVJ+GsvFArQiSDN/Sor6N6FkPoSKeqapiNIIGqZHIJvdAK2GWDIeQQXtZ1hRLaSU/wppr6OZDmXzzwiD0m9gaGgLtBZMwHLxV0gqvIVzxcdQTqHrSjPZrwn9WU9ID1hAaQxahiy9H+Xyz/AhyuafgIH81k/Up9NbhGRmFHrSrXY3bjEwsJV/76EZPamHUW9qUOhNh0Jv6vdAKQLijXxD9KoO8YIsfzo2ex/x/W2iV6kSp9oL9KU7un2MAmK/7H6cHej22YEN4Y0Xb1civB4m9nDN1f3dX78WdrvXwkR4lde+RPjvfYlwcV/CWAzjX+Gahf1du+fH4+HCWPcWIZlyhd70y9DfH1/6INGrTotulfHCbsVd48QMvkAcf444PiO2z0TLv6PH+9Uw8erVMMEW9yf2LoZdOxo1frMW9sW/Oz8W2zy/t2txfm/84txYvHd+vGvH/GjXjsuj8b7LY/ErsyPxhY9Hog9cGu2cmB3pZLMjsW1AKRGSqVEhmXoNenq6bl5dp8KI453Hll8jtj/LNxzLjWDTNYnlMWx6f+OvxHSlOwkwP9Y1Nbc3zlgITTcsl6qdP7g00skuBh2vrO7NVGMvzFQ72IVqx44LfnTiQiXGzvmxbUuC55//MkpmJNiV3cBXfoyY3rRoubuI6TFiuH1LQjrWRQx3hujuJDGcLDYchnRbQrqzG2nOIaytXMdg1RpHmnUINO2+i0Hn2YtBJ7tcjd/XLMBMNbL9vB9j037spdW9j9xoMOVG2aQj7py0oxOTToT90yL/C3CbVOqLQAyXEd2e5n9NWLOnsGafbPw4Gg8aO4k1myHNyiHVTjXGqi1h1fSxajGkGU8snw+VjMO4ZDAolzef86LPTnuxK1Nu5MNzbuTQFC8n8seP7Ghw3uv4/KQV2T5pc2ORNQHOGmJw1hTZaVPcedogE6cNwj7UmgRoXDXNZlizpm+OLZUbw6r5Qx4Cl62TuGzO8bUIKuopbg4VdAkXdR8XNYaotjKAUj6MlTIDqdxY358IIHrGFr/6L0N8hNdZk9AzpsjOGOR3H+h4Ozf2gY7XBHhfxdV/qJi9r6Gdp8po4lQZs1NFWCdA2WS4pDcCgKpuwkV9ERW01zHVfowLKsNUHWmYk9UUN4eUkoTloo/lIkP50soAOXoY5ygDSVqxQVkyVoKHuLH3yuitUyW8/b0yYieLwpoAxwtC5XhBYMcp7DxWECaOUYHV5PUCUJVhuTy9dJwvvYzlwn9wvngU5+l1kMpfumUuxc2hnCLhYbmEh2WGsvmBFQEGc4fRoMSgv3mAY0X4ETfGTdVl+PZRCqxO4cjpNHScGIbP1hX4U12Bek2Gd+oKcNOP1mR44dZ4d/MAEmV4WFkKAPn8VjycP4Oy+RtCVtKXmUtxc2gwJ0GGfkYYGD6I9gxfQXuyH6P+oRmUGZxB/dnrKJNl0N+/uS7DyboCM8urpsB8XYbf1nOwiQEINRn0ugwXajIsNDQyzHGzDcMKvP13CpFjEjxQl+HPXFNTYHb1nABDQ/dCH72nSbaVm+pkMtrQrl6H8FXiL/gcAw+ivswkSqZvwHPPbXyXwj1HhuDe28WPm15BADhBofu27iiFz9UUeKMuw7WjeXhquW71nLzg0yAk0xpKpmbWVG/6XZRMPfmpJm3Tpk2bNm3atIH/O/8F3QzYxkVGwuEAAAAASUVORK5CYII=;" vertex="1" parent="1">
          <mxGeometry x="584" y="70" width="60" height="60" as="geometry" />
        </mxCell>
        <mxCell id="SR0VA5SI1RpmBbKCay9N-15" style="rounded=0;orthogonalLoop=1;jettySize=auto;html=1;exitX=1;exitY=1;exitDx=0;exitDy=0;entryX=0;entryY=0.5;entryDx=0;entryDy=0;" edge="1" parent="1" source="SR0VA5SI1RpmBbKCay9N-11" target="SR0VA5SI1RpmBbKCay9N-13">
          <mxGeometry relative="1" as="geometry" />
        </mxCell>
        <mxCell id="SR0VA5SI1RpmBbKCay9N-22" value="blot" style="edgeLabel;html=1;align=center;verticalAlign=middle;resizable=0;points=[];" vertex="1" connectable="0" parent="SR0VA5SI1RpmBbKCay9N-15">
          <mxGeometry x="0.0794" relative="1" as="geometry">
            <mxPoint as="offset" />
          </mxGeometry>
        </mxCell>
        <mxCell id="SR0VA5SI1RpmBbKCay9N-11" value="Python Web" style="shape=image;verticalLabelPosition=bottom;labelBackgroundColor=default;verticalAlign=top;aspect=fixed;imageAspect=0;image=data:image/png,iVBORw0KGgoAAAANSUhEUgAAADIAAAAyCAYAAAAeP4ixAAAACXBIWXMAAAsTAAALEwEAmpwYAAADIElEQVR4nO3XbcjfUxzH8dc2dK0hxojcZdawGObC3JW7ctvQRhRNbtMiJPLA5p7N0J54QimZmzBs7h/oSpGiPTBGIpI1NUrygG3o1Odfv/5+u/5/rj34N+ddV9fvnN/5/c75nO/3fL6/P5VKpVKpVCqVyv+R/TDJNsBDOB9DfY6f0OP+rrgTC8a4rmG8isP7GVwi8Rm+wnM4rI/xH2ATPsRLeB8/4YuMuRmbce8YREzAC/gLs/t54HT8hmdwPTZgKfbokYplggsafVPwSqNdRN5tbEzCnziu18Dp2ckfs6u34UwcgXl4EZNbntuxRUhhu8b1a1tBiES+p5CXsRhn569E5BbMx1zsiQP6FHJq15gi5B5bR8jsXoNKfo9gbSJyMXbANJw1ynMdIUsTudvxcIuQ5hnZGQ/iWfyAyxr39sfreAPf4NwuIcfjKLyZ9T6FXZqTlYn+wLe4GjPSvztO6EPI47gmJrGwRch9jXZxsSdzvQhvNe4twf25LmZzRYuQgyK0Nc2OzcCRpElpdzitDyHFsju7fWGLkM7immyPx/Buo+/yrKNEa2rX+E15z4au9f3D4t7B17gW++LknJd5/0JIG0XIA432jKTEsthqMyKFE/EJfsclXUKW4228N1oNuxW/4hGsTPEptjdzlGo/pQ8hK2MkhXFYn80q3JCFdZiT/+PxREyo096czd0bPyearRyKz7EGV8WlyoGfiFO2kBp3RcgqnNMypuTz9/iykXKrU3gfxYqczXLGCh/j+RTSYjoXpf/KzLM8JaHUvI0xqTPaxCzJA2uTaqsSwkXZze5aMSvOdiQOaXnfgZn0mIaB7BSL3ivtqY13l02blY3r3Jf3H517nf6ZMaJ9bGEHy058h0vxacI5NNoBG1TmYF2iUrz86aTYcL/fOoPCeFwX5xhJfq9OGOd3FbCBZyJuTOX9Jd5dDuJuMYW5XYWyFKeTDCjjcFM+B9bH18v5uSP9i1PFl6XSLki0SoU/zwAyOUVqYeMbaE3ErYvLbUwN+ih1o1MnBpah2Oj0fAsNR+TB28pP5EqlUqlUKpVKpVLxH/gbR4StD37x4x4AAAAASUVORK5CYII=;" vertex="1" parent="1">
          <mxGeometry x="440" y="155.9" width="60" height="60" as="geometry" />
        </mxCell>
        <mxCell id="SR0VA5SI1RpmBbKCay9N-17" value="" style="edgeStyle=none;rounded=0;orthogonalLoop=1;jettySize=auto;html=1;" edge="1" parent="1" source="SR0VA5SI1RpmBbKCay9N-12" target="SR0VA5SI1RpmBbKCay9N-11">
          <mxGeometry relative="1" as="geometry" />
        </mxCell>
        <mxCell id="SR0VA5SI1RpmBbKCay9N-23" value="HTTP" style="edgeLabel;html=1;align=center;verticalAlign=middle;resizable=0;points=[];" vertex="1" connectable="0" parent="SR0VA5SI1RpmBbKCay9N-17">
          <mxGeometry x="-0.0441" y="1" relative="1" as="geometry">
            <mxPoint as="offset" />
          </mxGeometry>
        </mxCell>
        <mxCell id="SR0VA5SI1RpmBbKCay9N-12" value="Node JS" style="shape=image;verticalLabelPosition=bottom;labelBackgroundColor=default;verticalAlign=top;aspect=fixed;imageAspect=0;image=data:image/png,iVBORw0KGgoAAAANSUhEUgAAADAAAAAwCAYAAABXAvmHAAAACXBIWXMAAAsTAAALEwEAmpwYAAAE0ElEQVR4nO1ZaYhbVRR+03Hfd6mO8859M7XSH1Up/hCKFRUR0T8t0boWJznnzVTb0l+KaEcQcV+Kv4KtM++chEIQoS4V/OGCtYoLImqpIrgUB63SsVrrUtvIecnEl5tM5k0mmTylH4Q8knfv/b5771nuuY5zCP9TnJun07wc3Wg4c5PHg2c4/xX0FNYeDUx3AuOvRqioH2D60witn79h4HgnyTBM1xrBryaI13yYvgMmcoaH5zhJQl8+swgYt1pk/wbBZ0Fwgz5H/wOht43gRYnY57o1bIJG6A03l7lg4j03T+cZpi2WwINGqNC3aeicWSe+KEuHg+AaYNxTNbNMO4H9W52i0zXZFgOhLy2xe43gfe7IiqNmhbwJ8AojtN0i8ZuSUANuXjx+G4pvFxptA8gNuNPtr1dorhHMGsEDVp+vmdH0wpYR780Pnaz7HBj3W9vlAy+gxS1xAEJvVa9oKIr7N952etMdL3l9+DB1eSC0y5qhsZa7wqLTZZhShunr6rFwt8aUBYXUEdPqT5WD4PvVrg//AKYHFxRWHue0CWfyzccawfsN4z5rtd87K7j91NgdgVDOmvXne/NDnjNLcEd8UNuytlUQuwNg+rm8hPs8ocvbyrYBIMAlJTcbihh34iISMT91WuTBQDLXhTbFtFq/Xaarekb9s6fkwvTRBJ+2CND9Wfbje9TwK38UUt0e01CdwFW0vZlhXNY5ARGClWhaSHWr3TQiXisEH0+MACO40iK3FYTuNYIDkKPr3YAGlbCx3WYuc01CBNC7EfIPNEorTGSlQPDVZAhgGqv8FtDFjdsPzi+nJDreL3Yi2CEB+Flka0yZMoPgGiP4EAiuS4QAjdh1jPQLEHpOtxQEeIsbDF4YJ0XoiIBySrAthufZD4KfGKFH+zjdnxgBkbzfN0zv1KTMk4lhWp0YAVHo75rjhxmn0N16VjaMb6rRWvnOAfusPOsCtAZUTo1Temhp1LZ//aoj1feD0DcRIQ93VIBhvCMyo9k44wHTPREB3FEBXuBfXSHDNKYGHUPAM//aAj3WUQHlytz3kVXY5nHmsqpEL5L3g+C6aFlG3+2ogNKguKye5wGmHw3jjrAN4+463qiQGC8UGifTzqncp6nEA3q6XmDrqBvVWOAFtFTJhRlpKRrv0pUAoc+B6UVP6K5ezphJuTQpYLzc6Pd6KW5cATMFCF1ZKpqVKhSxGxqhESvAvKLHwpoXi05XtOyiM94K4l7enweCL1j2szF2Bz2F9Cl2tRmE/jKMT2qhqzJQQEujBjpT4v2y6gTD+Ej5PqHqQBQdNx4KqW7IZRAEf7CMbq9h2gxML1kD1XiQ2BgenmPYT1e733DS1F5IuTTdt1egEzW42LNSW/Tyz2+q/4AWhwd7a7VB6Al3ZMVJTROvGSjvzzNMTxnBnywB213xL51uf3rIMUKbJk5jkcl4WU9pTrsQJmCj6YWQo0smy+EbYW6WjtFSfMW7yETagTs0DXE6Ab28M4xrQehjrTjULfwWnS6XcbneA1grOK5tW+XBpg29GwhThKrZpA+jh/m6JfQw/8HsjErorYIWftUzWQQPAqNoUbZOXlR1h5YYaCHYqkgUp3OHlghU7sCqj4ux79ASA43mnvg3qOHqc6f5HILTJvwDFDl0Rr2QsrgAAAAASUVORK5CYII=;" vertex="1" parent="1">
          <mxGeometry x="290" y="155.5" width="59" height="59" as="geometry" />
        </mxCell>
        <mxCell id="SR0VA5SI1RpmBbKCay9N-13" value="Neo4J" style="shape=image;verticalLabelPosition=bottom;labelBackgroundColor=default;verticalAlign=top;aspect=fixed;imageAspect=0;image=data:image/png,iVBORw0KGgoAAAANSUhEUgAAADAAAAAwCAYAAABXAvmHAAAACXBIWXMAAAsTAAALEwEAmpwYAAAH8klEQVR4nM2ZfXDT5h3HtY69/LPdut1AspSwcht3zW67dd1WOsv2aikQNtpCZ9kuhdi5sI7L2uPorjiOFSuUJJKhIUfHEefFiQlxXmxLpmkaQh5l7DpujJRy+6P9ox2s626lZWspLS0tJLF3susgx5IsJ2bwu3v+kmx9P783Pc9PEKTDnGFLs73b9B4VNCbdAvmpWyDP1vDEzifHq74C3c7GMJZlzpDpdVuHMZVdboGUr7OuqAVGmFEcoflRxBc9D3uHr6LN4+9jLEhinJiSFsqCd1AWvISxIFjWChxwy/i3/y8Ajl7Tn+XiFQBSbp78i8EvtMC7BlKZNTiHNh+bRjnxWhYgb7HiLMaKL2ABcSPEMHfcFPFbD5vvoYK54hUBBDK1NbF2M1w/dB32DM5gDVFU+n1Z69RaVQDZQlnwKspNPgKlUl8oKYAzbB5YKF4NwC0QUcQXew3xDr+T/f1K5sRXpTRCWXECC0xaMBY8jXHinAYMKGfBqtIB9JpO6QVwCeQ04ouL8K5ICvHzT97beeZLKCfukYTB+6ZWZv8T48SxvAhw4F2MBTGUBc0oO0WVDMDRZ5osAgAgdOxUtg7Q5mPznjaw4J55AFY8lUkb8e3yfS+0VQXdffaQ6Q2qG//Q3mm8tmXEes4tkMdcPLnHzVt/vCQAZ59pexEpRMPekUsyALmH30RZ0JT2Pgs+uosb8zn6Hhi1dRrnFv539Yg11zE8+VLN0cr7Fg1h78EvFwJwCeTl1a29DtiT7UK5ALLO84b5UP1D9m78ipJjbAoAn3e5pIsnmooWj9Dxg/e3+WuoLuOMOgBxzTm4ySb3vhKAFIX1XdusVKdxVk28TQ3gxrPa9Ytvev7RtBjP4Mz3A/vqHN34PxcCuATylQf7t1TB3ui/5OLzAcBMxf5eq70L/0RLvK0gAJlyJay1ugBg7/DlG4IiKcQX/2sF99wTjtADTa7E2o0/a2MpQyN/RAJcKD4PgBXDzl4zKCTepgdAIK/UPm9doe39RuFZJVHSQjyRNJDadSWAn7Y/u47qMCZLAeDWk0qId/hKjiBPJGlo5CNII38I9gwpelwNAOXE886wuUePeJt+gItUlPqiovgVu/lf5Xmdjk3Nw/mE/UUChBw9pn+XFoCU2usaZe/7bryM5gF80ensdQMt9BQHAOrtXfjVUgNU80S1cgS8Q1cVc98XO4P4Yn+U0qkoABY8TgXzX1hLjkDCuitPfDk7dmemSJVERVKwd+gzPeJzijgA6qhO/FqpAdwC+UR++vjjtSrikwYm8fN0CjUKzxUFwIqt9m78g9KnUOUmBQC+QzF9Gob/k71nJZP4RlEAnDjmCJlPlhSAJ5PbeAuWB2Cg+UHl3j+QhJn4LzMR4PuLrIGrDx/eVFdigNPKHYiOj2kKqx+cLboG0p1o8jd606haB4CLtzrVAI4VALgONwy/pacTLdjMvUX1Vf7O1oEvHYAnT0MpSPnoCdPxLi3vL28R03sQg5+vKRJAKuYDzpB5YkkAPPneVmH9akjNVviFp1VFeYc/yN5XXj92p3zvrw8AJLHA5DZHyPzK4gCIi+vCOx7CODGuCrCciZNaohCabytn4qsQOn666Ahk1hzKgp3OPsthWxBP6gcgTla097sxVrwo7a1UAaSxhv5CjSwGIBuNceMfWiqdIdM0FcRnlQBcPDnj5skT649s34ayYEh2MDquDiAVckP0XEHxdPw4xKTuMPiPSrWQLBrg80MOxoEj2N6JKipUtcUZNu919OLxx6LWHY6hjRu+1y48Il1HWXA9d4YkNmgD0PGDhQAwZuKb2fth78iFxQHkHDc/lc7LKCdOY5z4OsqKn6lELmloBepFfONNOzinBWCgBUa618C8uDon5dKFHUlK+6liALBMlxKl+siOXVQmeJOa4mVROKFZzJ5IKnPoiSSlcSLi40d/yLU/RYWtHmf4F3vdcXKdObj7fpQF1VLOFh4tim9XMNEvS8/+VuDk1zBW/FjJ+2WByZ/oAoCfGbtbLbflRYzQsfive4mAvcv0UbYIqSAu7yCvuhLE499pGbWgrPgPDc+ey85FMxM9cEkhQiO6xM9HwReLqYr3RJKrngnvcPTgFxa2wQUA2XW2smvHjzBOPKvUWrFMHXQbAmADxoGoQoTeN+yZKCsKAGKYZbmTCVmBMpEmqgv/WKmPqwBIvfyCsat5DcaC/853ofRo/cQylBN/q9Fyk2UseBhajC1vTBDpPJcDNMT+5giZ/q72JlUHkLYCxJkyqVAzXn1Z/ixsHiwvdQ5ASzHYz++Upw55qKZeayugCSCQqc2xDdullEA58TLWLKa/I2Ac+IHy2B1EoWhUefpQjBloPiC1SMQXfdPeYzq/FACXQLycfoFl8v5S+rMTJ36S/24Qj0oFDZXK4MbYdoROeCiVPYxeAOk0tXo/v7NAWx347oHx0n883NJfeVeh7XBBAIFM3dfRVqe2vUBZ0QPdLNscxu8tBQAZ+n2NwnbiNQM3lR4c3DSTvgmXAmBNcPeDslw/L7XRkua7lhUakReuAeLDuw/GV2IsoJGW48aSf5ksZM6w6cUlRmAAupVWO2hdoTUq1AYgZmuOWiugW22PHsZb1SYMWgAugfRDt4ttDluixQC4BKJbdRxyq8zZb6GpTnxGE4AnLrl5og66Xe2xI1Vfd/aZeu09+LvSF0iqE09KO08XT/zJLRBP1UbXzh8/b5b9D/fRGmLs7B/EAAAAAElFTkSuQmCC;" vertex="1" parent="1">
          <mxGeometry x="590" y="240" width="48" height="48" as="geometry" />
        </mxCell>
        <mxCell id="SR0VA5SI1RpmBbKCay9N-16" style="rounded=0;orthogonalLoop=1;jettySize=auto;html=1;exitX=1;exitY=0.25;exitDx=0;exitDy=0;entryX=0;entryY=0.75;entryDx=0;entryDy=0;" edge="1" parent="1" source="SR0VA5SI1RpmBbKCay9N-11" target="SR0VA5SI1RpmBbKCay9N-8">
          <mxGeometry relative="1" as="geometry">
            <mxPoint x="500" y="163.5" as="sourcePoint" />
            <mxPoint x="590" y="217.5" as="targetPoint" />
          </mxGeometry>
        </mxCell>
        <mxCell id="SR0VA5SI1RpmBbKCay9N-21" value="pymysql" style="edgeLabel;html=1;align=center;verticalAlign=middle;resizable=0;points=[];" vertex="1" connectable="0" parent="SR0VA5SI1RpmBbKCay9N-16">
          <mxGeometry x="0.1506" relative="1" as="geometry">
            <mxPoint as="offset" />
          </mxGeometry>
        </mxCell>
      </root>
    </mxGraphModel>
  </diagram>
</mxfile>
